<?xml version="1.0" encoding="UTF-8"?>
<!DOCTYPE svg PUBLIC "-//W3C//DTD SVG 1.1//EN" "http://www.w3.org/Graphics/SVG/1.1/DTD/svg11.dtd">
<!-- Creator: CorelDRAW X7 -->
<svg xmlns="http://www.w3.org/2000/svg" xml:space="preserve" width="1024px" height="248px" version="1.1" style="shape-rendering:geometricPrecision; text-rendering:geometricPrecision; image-rendering:optimizeQuality; fill-rule:evenodd; clip-rule:evenodd"
viewBox="0 0 102400 24800"
 xmlns:xlink="http://www.w3.org/1999/xlink">
 <defs>
  <style type="text/css">
   <![CDATA[
    .fil0 {fill:#1676F4}
   ]]>
  </style>
 </defs>
 <g id="Layer_x0020_1">
  <metadata id="CorelCorpID_0Corel-Layer"/>
  <path class="fil0" d="M12398 4450c4390,0 7949,3559 7949,7950l0 9512c2719,-2274 4448,-5691 4448,-9512 0,-6847 -5550,-12397 -12397,-12397 -4489,0 -8421,2386 -10597,5959l5933 0c1310,-951 2921,-1512 4664,-1512zm76851 5302c164,-35 327,-61 491,-79 163,-17 345,-26 543,-26 199,0 375,9 527,26 152,18 309,44 473,79 35,59 67,143 96,255 30,111 56,227 79,350 24,123 44,243 62,360 17,116 32,216 44,298 93,-176 216,-351 368,-526 152,-175 333,-333 543,-474 211,-140 447,-254 710,-342 263,-87 558,-131 886,-131 1414,0 2320,538 2717,1613 234,-432 565,-810 991,-1131 427,-321 967,-482 1622,-482 1029,0 1786,283 2271,850 485,567 727,1453 727,2657l0 5768c-420,70 -836,105 -1245,105 -409,0 -824,-35 -1244,-105l0 -5120c0,-631 -79,-1116 -237,-1455 -158,-339 -476,-508 -956,-508 -198,0 -394,29 -587,87 -193,59 -368,167 -526,325 -158,157 -287,379 -386,666 -99,286 -149,658 -149,1113l0 4892c-421,70 -836,105 -1245,105 -409,0 -824,-35 -1245,-105l0 -5120c0,-631 -79,-1116 -236,-1455 -158,-339 -477,-508 -956,-508 -199,0 -398,29 -596,87 -199,59 -377,173 -535,342 -158,170 -283,406 -377,710 -93,304 -140,702 -140,1192l0 4752c-421,70 -836,105 -1245,105 -409,0 -824,-35 -1245,-105l0 -9065zm-9784 0c421,-70 836,-105 1245,-105 409,0 824,35 1245,105l0 4805c0,479 38,873 114,1183 76,310 193,555 351,737 158,181 353,309 587,385 234,76 509,114 824,114 433,0 795,-41 1087,-123l0 -7101c421,-70 830,-105 1228,-105 409,0 824,35 1245,105l0 8714c-374,129 -868,255 -1482,377 -614,123 -1254,185 -1920,185 -596,0 -1169,-47 -1718,-141 -550,-93 -1032,-292 -1447,-596 -415,-304 -745,-748 -990,-1332 -246,-585 -369,-1362 -369,-2332l0 -4875zm-4443 1894l-1174 0c-35,-152 -62,-313 -79,-482 -18,-170 -26,-331 -26,-482 0,-316 35,-626 105,-930l3612 0 0 9065c-421,70 -830,105 -1228,105 -385,0 -789,-35 -1210,-105l0 -7171zm-368 -3419c-70,-397 -105,-789 -105,-1175 0,-374 35,-765 105,-1175 199,-35 412,-61 640,-79 228,-17 436,-26 623,-26 198,0 415,9 648,26 234,18 450,44 649,79 35,199 59,395 71,588 11,193 17,389 17,587 0,187 -6,380 -17,579 -12,199 -36,397 -71,596 -199,35 -412,58 -640,70 -228,12 -441,18 -640,18 -187,0 -397,-6 -631,-18 -234,-12 -450,-35 -649,-70zm-7171 1525c175,-35 342,-61 500,-79 157,-17 330,-26 517,-26 175,0 348,12 517,35 170,24 336,53 500,88 35,58 67,143 96,254 30,111 56,228 79,351 24,122 44,245 62,368 17,123 32,225 44,307 257,-363 572,-687 946,-973 374,-287 842,-430 1403,-430 117,0 251,6 403,18 152,11 263,29 334,52 23,117 40,251 52,403 12,152 18,310 18,474 0,199 -9,415 -27,649 -17,234 -50,456 -96,666 -129,-23 -272,-35 -430,-35 -158,0 -254,0 -289,0 -199,0 -421,20 -666,61 -246,41 -480,149 -702,325 -222,175 -406,438 -552,789 -146,350 -219,841 -219,1472l0 4314c-211,35 -421,58 -631,70 -211,11 -416,17 -614,17 -199,0 -400,-6 -605,-17 -205,-12 -418,-35 -640,-70l0 -9083zm-4278 4910c-140,-24 -292,-44 -456,-62 -163,-17 -310,-26 -438,-26 -573,0 -1026,102 -1359,307 -333,205 -500,535 -500,991 0,304 64,537 193,701 129,164 284,283 465,359 181,76 374,123 579,140 204,18 382,27 534,27 176,0 351,-15 526,-44 176,-29 327,-56 456,-79l0 -2314zm0 -1806c0,-281 -47,-509 -140,-684 -94,-176 -222,-313 -386,-412 -164,-100 -365,-167 -605,-202 -239,-35 -505,-52 -798,-52 -631,0 -1303,123 -2016,368 -164,-304 -286,-591 -368,-859 -82,-269 -123,-591 -123,-965 514,-175 1029,-304 1543,-385 514,-82 994,-123 1438,-123 1215,0 2165,292 2849,877 684,584 1026,1519 1026,2805l0 5260c-409,129 -906,251 -1491,368 -584,117 -1245,176 -1981,176 -596,0 -1142,-53 -1639,-158 -497,-106 -924,-281 -1280,-526 -357,-246 -631,-562 -824,-947 -193,-386 -290,-859 -290,-1420 0,-561 120,-1032 360,-1412 239,-380 549,-683 929,-911 380,-228 804,-392 1271,-491 468,-100 936,-149 1403,-149 339,0 713,17 1122,52l0 -210zm-11396 -3104c175,-35 341,-61 499,-79 158,-17 330,-26 518,-26 175,0 347,12 517,35 169,24 336,53 499,88 35,58 68,143 97,254 29,111 55,228 79,351 23,122 44,245 61,368 17,123 32,225 44,307 257,-363 573,-687 947,-973 374,-287 841,-430 1402,-430 117,0 252,6 404,18 152,11 263,29 333,52 23,117 41,251 52,403 12,152 18,310 18,474 0,199 -9,415 -26,649 -18,234 -50,456 -97,666 -128,-23 -272,-35 -430,-35 -157,0 -254,0 -289,0 -198,0 -421,20 -666,61 -245,41 -479,149 -701,325 -222,175 -407,438 -553,789 -146,350 -219,841 -219,1472l0 4314c-210,35 -421,58 -631,70 -210,11 -415,17 -614,17 -198,0 -400,-6 -605,-17 -204,-12 -418,-35 -639,-70l0 -9083zm-2245 6926c140,234 257,506 351,816 93,309 140,674 140,1095 -467,187 -906,307 -1315,360 -409,52 -836,79 -1280,79 -760,0 -1420,-120 -1981,-360 -561,-239 -1026,-570 -1394,-991 -368,-420 -646,-920 -833,-1498 -187,-579 -281,-1208 -281,-1886 0,-666 91,-1285 272,-1858 181,-573 456,-1076 824,-1508 369,-432 827,-771 1377,-1017 549,-245 1186,-368 1911,-368 257,0 494,6 710,17 216,12 424,35 622,71 199,35 398,81 597,140 198,58 420,134 666,228 0,269 -35,570 -105,903 -71,333 -181,652 -333,956 -351,-118 -658,-197 -921,-237 -263,-41 -564,-62 -903,-62 -725,0 -1271,237 -1639,710 -369,474 -553,1149 -553,2025 0,947 199,1637 596,2069 398,433 936,649 1613,649 176,0 337,-3 483,-9 146,-6 289,-20 429,-43 141,-24 284,-59 430,-106 146,-46 318,-105 517,-175zm-14044 -10468c245,-35 479,-61 701,-78 222,-18 468,-27 736,-27 234,0 462,9 684,27 222,17 468,43 737,78l3945 12607c-479,70 -947,105 -1403,105 -444,0 -877,-35 -1297,-105l-702 -2525 -4173 0 -719 2525c-420,70 -824,105 -1209,105 -433,0 -860,-35 -1281,-105l3981 -12607zm2805 7961l-1455 -5295 -1526 5295 2981 0zm-25927 -5838c2246,0 4067,1820 4067,4067 0,2246 -1821,4067 -4067,4067 -1459,0 -2738,-768 -3456,-1921l-4200 0c936,3347 4009,5803 7656,5803 1319,0 2562,-321 3657,-890l0 4789c-1156,357 -2384,549 -3657,549 -6847,0 -12397,-5550 -12397,-12397 0,-732 63,-1449 185,-2146l4556 0 3828 0 372 0c718,-1154 1997,-1921 3456,-1921z"/>
 </g>
</svg>
