<?xml version="1.0" encoding="UTF-8"?>
<!DOCTYPE svg PUBLIC "-//W3C//DTD SVG 1.1//EN" "http://www.w3.org/Graphics/SVG/1.1/DTD/svg11.dtd">
<!-- Creator: CorelDRAW X7 -->
<svg xmlns="http://www.w3.org/2000/svg" xml:space="preserve" width="256px" height="62px" version="1.1" style="shape-rendering:geometricPrecision; text-rendering:geometricPrecision; image-rendering:optimizeQuality; fill-rule:evenodd; clip-rule:evenodd"
viewBox="0 0 25600 6200"
 xmlns:xlink="http://www.w3.org/1999/xlink">
 <defs>
  <style type="text/css">
   <![CDATA[
    .fil0 {fill:#FF473A}
   ]]>
  </style>
 </defs>
 <g id="Layer_x0020_1">
  <metadata id="CorelCorpID_0Corel-Layer"/>
  <path class="fil0" d="M3097 1112c1098,0 1988,890 1988,1988l0 2379c680,-569 1112,-1424 1112,-2379 0,-1712 -1388,-3100 -3100,-3100 -1122,0 -2106,596 -2650,1490l1484 0c328,-238 730,-378 1166,-378zm19218 1326c41,-9 81,-15 122,-20 41,-4 87,-6 136,-6 50,0 94,2 132,6 38,5 77,11 118,20 9,14 17,36 24,63 8,28 14,58 20,88 6,31 11,61 15,90 5,29 8,54 11,75 24,-44 54,-88 92,-132 38,-44 84,-83 136,-118 53,-35 112,-64 178,-86 66,-22 139,-33 221,-33 354,0 580,135 680,404 58,-108 141,-203 248,-283 106,-81 241,-121 405,-121 257,0 447,71 568,213 121,142 182,363 182,664l0 1443c-105,17 -209,26 -311,26 -103,0 -206,-9 -312,-26l0 -1281c0,-158 -19,-279 -59,-364 -39,-84 -119,-127 -239,-127 -49,0 -98,8 -147,22 -48,15 -92,42 -131,81 -40,40 -72,95 -97,167 -25,71 -37,164 -37,278l0 1224c-105,17 -209,26 -311,26 -103,0 -206,-9 -312,-26l0 -1281c0,-158 -19,-279 -59,-364 -39,-84 -119,-127 -239,-127 -49,0 -99,8 -149,22 -49,15 -94,43 -133,86 -40,42 -71,101 -95,177 -23,76 -35,176 -35,298l0 1189c-105,17 -209,26 -311,26 -102,0 -206,-9 -311,-26l0 -2267zm-2447 0c105,-18 209,-26 311,-26 103,0 206,8 312,26l0 1201c0,120 9,219 28,296 19,78 48,139 88,184 39,46 88,78 147,97 58,19 127,28 206,28 108,0 199,-10 272,-30l0 -1776c105,-18 207,-26 307,-26 102,0 206,8 311,26l0 2179c-94,32 -217,63 -371,94 -153,31 -313,46 -480,46 -149,0 -292,-11 -429,-35 -138,-23 -258,-73 -362,-149 -104,-76 -186,-187 -248,-333 -61,-146 -92,-341 -92,-583l0 -1219zm-1111 473l-294 0c-8,-38 -15,-78 -19,-120 -5,-43 -7,-83 -7,-121 0,-79 9,-156 26,-232l903 0 0 2267c-105,17 -207,26 -306,26 -97,0 -198,-9 -303,-26l0 -1794zm-92 -855c-18,-99 -26,-197 -26,-293 0,-94 8,-192 26,-294 50,-9 103,-15 160,-20 57,-4 109,-6 156,-6 49,0 103,2 162,6 58,5 112,11 162,20 9,50 15,99 18,147 3,48 4,97 4,147 0,46 -1,95 -4,144 -3,50 -9,100 -18,149 -50,9 -103,15 -160,18 -57,3 -110,4 -160,4 -47,0 -99,-1 -158,-4 -58,-3 -112,-9 -162,-18zm-1793 382c44,-9 85,-15 125,-20 39,-4 82,-6 129,-6 44,0 87,3 129,8 43,6 84,14 125,22 9,15 17,36 24,64 8,28 14,57 20,88 6,30 11,61 16,92 4,30 8,56 10,76 65,-90 144,-171 237,-243 94,-72 211,-107 351,-107 29,0 63,1 101,4 38,3 66,7 83,13 6,29 10,63 13,101 3,38 5,77 5,118 0,50 -3,104 -7,163 -4,58 -12,114 -24,166 -32,-6 -68,-9 -107,-9 -40,0 -64,0 -73,0 -49,0 -105,6 -166,16 -62,10 -120,37 -176,81 -55,44 -101,109 -138,197 -36,88 -55,211 -55,368l0 1079c-52,9 -105,15 -157,18 -53,2 -104,4 -154,4 -50,0 -100,-2 -151,-4 -51,-3 -105,-9 -160,-18l0 -2271zm-1070 1228c-35,-6 -73,-11 -114,-16 -41,-4 -77,-6 -110,-6 -143,0 -256,25 -339,76 -84,52 -125,134 -125,248 0,76 16,134 48,175 32,41 71,71 116,90 45,19 94,31 145,35 51,5 96,7 133,7 44,0 88,-4 132,-11 44,-7 82,-14 114,-20l0 -578zm0 -452c0,-70 -12,-127 -35,-171 -23,-44 -56,-78 -97,-103 -40,-25 -91,-42 -151,-51 -60,-8 -126,-13 -199,-13 -158,0 -326,31 -504,92 -41,-76 -72,-147 -93,-214 -20,-68 -30,-148 -30,-242 128,-43 257,-76 386,-96 128,-20 248,-31 359,-31 304,0 542,73 713,219 171,147 256,380 256,702l0 1315c-102,33 -227,63 -373,92 -146,30 -311,44 -495,44 -149,0 -286,-13 -410,-39 -124,-27 -231,-70 -320,-132 -89,-61 -158,-140 -206,-236 -48,-97 -72,-215 -72,-356 0,-140 29,-258 89,-353 60,-95 138,-171 233,-228 95,-57 201,-98 318,-122 117,-25 233,-38 350,-38 85,0 179,5 281,13l0 -52zm-2850 -776c44,-9 86,-15 125,-20 40,-4 83,-6 130,-6 43,0 86,3 129,8 42,6 84,14 125,22 8,15 17,36 24,64 7,28 14,57 20,88 5,30 11,61 15,92 4,30 8,56 11,76 64,-90 143,-171 237,-243 93,-72 210,-107 350,-107 30,0 63,1 101,4 38,3 66,7 84,13 5,29 10,63 13,101 3,38 4,77 4,118 0,50 -2,104 -6,163 -5,58 -13,114 -25,166 -32,-6 -68,-9 -107,-9 -39,0 -64,0 -72,0 -50,0 -106,6 -167,16 -61,10 -120,37 -175,81 -56,44 -102,109 -138,197 -37,88 -55,211 -55,368l0 1079c-53,9 -106,15 -158,18 -53,2 -104,4 -154,4 -49,0 -100,-2 -151,-4 -51,-3 -104,-9 -160,-18l0 -2271zm-561 1732c35,58 64,126 88,204 23,77 35,168 35,274 -117,46 -227,76 -329,90 -102,13 -209,19 -320,19 -190,0 -355,-30 -496,-90 -140,-60 -256,-142 -348,-247 -92,-106 -162,-231 -208,-375 -47,-145 -71,-302 -71,-472 0,-166 23,-321 68,-464 46,-144 114,-269 206,-377 93,-109 207,-193 345,-255 137,-61 296,-92 477,-92 65,0 124,2 178,5 54,3 106,8 156,17 49,9 99,21 149,35 50,15 105,34 166,57 0,68 -8,143 -26,226 -17,83 -45,163 -83,239 -88,-29 -165,-49 -230,-59 -66,-10 -141,-16 -226,-16 -181,0 -318,60 -410,178 -92,118 -138,287 -138,506 0,237 49,410 149,518 99,108 234,162 403,162 44,0 84,-1 121,-2 36,-2 72,-5 107,-11 35,-6 71,-15 108,-26 36,-12 79,-27 129,-44zm-3512 -2618c61,-9 120,-15 175,-20 56,-4 117,-6 184,-6 59,0 116,2 172,6 55,5 116,11 184,20l986 3153c-120,17 -237,26 -351,26 -111,0 -219,-9 -324,-26l-175 -632 -1044 0 -180 632c-105,17 -206,26 -302,26 -108,0 -215,-9 -320,-26l995 -3153zm701 1991l-363 -1324 -382 1324 745 0zm-6483 -1460c562,0 1017,455 1017,1017 0,562 -455,1017 -1017,1017 -365,0 -684,-192 -864,-480l-1050 0c234,837 1002,1451 1914,1451 330,0 641,-81 915,-223l0 1198c-289,89 -597,137 -915,137 -1712,0 -3100,-1388 -3100,-3100 0,-183 16,-362 46,-537l1140 0 957 0 93 0c180,-288 499,-480 864,-480z"/>
 </g>
</svg>
