<?xml version="1.0" encoding="UTF-8"?>
<!DOCTYPE svg PUBLIC "-//W3C//DTD SVG 1.1//EN" "http://www.w3.org/Graphics/SVG/1.1/DTD/svg11.dtd">
<!-- Creator: CorelDRAW X7 -->
<svg xmlns="http://www.w3.org/2000/svg" xml:space="preserve" width="30px" height="30px" version="1.1" style="shape-rendering:geometricPrecision; text-rendering:geometricPrecision; image-rendering:optimizeQuality; fill-rule:evenodd; clip-rule:evenodd"
viewBox="0 0 3000 3000"
 xmlns:xlink="http://www.w3.org/1999/xlink">
 <defs>
  <style type="text/css">
   <![CDATA[
    .fil1 {fill:#FEFEFE}
    .fil0 {fill:#1676F4}
   ]]>
  </style>
 </defs>
 <g id="Layer_x0020_1">
  <metadata id="CorelCorpID_0Corel-Layer"/>
  <g id="_566401568">
   <circle class="fil0" cx="1500" cy="1500" r="1500"/>
   <path class="fil1" d="M1500 923c319,0 577,258 577,577l0 690c197,-165 323,-413 323,-690 0,-497 -403,-900 -900,-900 -326,0 -611,173 -769,433l431 0c95,-69 212,-110 338,-110zm0 282c163,0 295,132 295,295 0,163 -132,295 -295,295 -106,0 -199,-56 -251,-139l-305 0c68,243 291,421 556,421 96,0 186,-23 266,-65l0 348c-84,26 -174,40 -266,40 -497,0 -900,-403 -900,-900 0,-53 5,-105 14,-156l330 0 278 0 27 0c52,-83 145,-139 251,-139z"/>
  </g>
 </g>
</svg>
