<?xml version="1.0" encoding="UTF-8"?>
<!DOCTYPE svg PUBLIC "-//W3C//DTD SVG 1.1//EN" "http://www.w3.org/Graphics/SVG/1.1/DTD/svg11.dtd">
<!-- Creator: CorelDRAW X7 -->
<svg xmlns="http://www.w3.org/2000/svg" xml:space="preserve" width="512px" height="124px" version="1.1" style="shape-rendering:geometricPrecision; text-rendering:geometricPrecision; image-rendering:optimizeQuality; fill-rule:evenodd; clip-rule:evenodd"
viewBox="0 0 51200 12400"
 xmlns:xlink="http://www.w3.org/1999/xlink">
 <defs>
  <style type="text/css">
   <![CDATA[
    .fil0 {fill:#FF473A}
   ]]>
  </style>
 </defs>
 <g id="Layer_x0020_1">
  <metadata id="CorelCorpID_0Corel-Layer"/>
  <path class="fil0" d="M6195 2224c2195,0 3975,1780 3975,3976l0 4757c1360,-1137 2225,-2846 2225,-4757 0,-3424 -2776,-6200 -6200,-6200 -2245,0 -4212,1193 -5300,2980l2967 0c655,-475 1461,-756 2333,-756zm38434 2652c82,-18 163,-31 245,-40 82,-8 173,-13 272,-13 99,0 187,5 263,13 76,9 155,22 237,40 17,29 34,71 48,127 15,56 28,114 40,175 11,62 22,122 30,180 9,59 16,108 22,149 47,-87 108,-175 184,-263 76,-87 167,-166 272,-237 105,-70 224,-127 355,-171 132,-43 279,-65 443,-65 707,0 1160,269 1359,806 117,-216 282,-405 496,-565 213,-161 483,-241 811,-241 514,0 893,141 1135,425 243,284 364,726 364,1328l0 2885c-210,35 -418,53 -622,53 -205,0 -412,-18 -623,-53l0 -2560c0,-316 -39,-558 -118,-728 -79,-170 -238,-254 -478,-254 -99,0 -197,14 -294,44 -96,29 -184,83 -263,162 -79,79 -143,190 -193,333 -50,143 -74,329 -74,557l0 2446c-211,35 -418,53 -623,53 -205,0 -412,-18 -623,-53l0 -2560c0,-316 -39,-558 -118,-728 -79,-170 -238,-254 -478,-254 -99,0 -199,14 -298,44 -99,29 -189,86 -267,171 -79,84 -142,203 -189,355 -47,152 -70,350 -70,596l0 2376c-211,35 -418,53 -623,53 -204,0 -412,-18 -622,-53l0 -4533zm-4893 0c210,-35 418,-53 622,-53 205,0 412,18 623,53l0 2403c0,239 19,436 57,591 38,155 96,278 175,369 79,90 177,155 294,193 117,37 254,57 412,57 217,0 398,-21 544,-62l0 -3551c210,-35 415,-53 614,-53 204,0 412,18 622,53l0 4358c-187,64 -434,127 -741,188 -306,62 -627,93 -960,93 -298,0 -584,-24 -859,-71 -275,-46 -516,-146 -724,-298 -207,-152 -372,-374 -495,-666 -123,-292 -184,-681 -184,-1166l0 -2438zm-2222 947l-588 0c-17,-76 -30,-157 -39,-241 -9,-85 -13,-165 -13,-241 0,-158 17,-313 52,-465l1807 0 0 4533c-211,35 -415,53 -614,53 -193,0 -395,-18 -605,-53l0 -3586zm-184 -1710c-35,-199 -53,-395 -53,-588 0,-187 18,-382 53,-587 99,-18 206,-31 320,-40 114,-8 218,-13 311,-13 100,0 208,5 325,13 116,9 225,22 324,40 18,99 29,197 35,294 6,96 9,194 9,293 0,94 -3,190 -9,290 -6,99 -17,199 -35,298 -99,17 -206,29 -320,35 -114,6 -221,9 -320,9 -94,0 -199,-3 -316,-9 -117,-6 -225,-18 -324,-35zm-3587 763c88,-18 171,-31 250,-40 79,-8 165,-13 259,-13 88,0 174,6 258,18 85,12 169,26 250,44 18,29 34,71 49,127 14,55 27,114 39,175 12,61 22,123 31,184 9,62 16,113 22,154 128,-181 286,-344 473,-487 187,-143 421,-215 702,-215 58,0 125,3 202,9 76,6 131,15 166,26 12,59 21,126 26,202 6,76 9,155 9,237 0,99 -4,207 -13,324 -9,117 -25,228 -48,333 -64,-11 -136,-17 -215,-17 -79,0 -127,0 -145,0 -99,0 -210,10 -333,31 -123,20 -240,74 -351,162 -111,87 -203,219 -276,394 -73,176 -110,421 -110,737l0 2157c-105,18 -210,29 -315,35 -105,6 -208,9 -307,9 -99,0 -200,-3 -303,-9 -102,-6 -209,-17 -320,-35l0 -4542zm-2139 2455c-70,-12 -146,-22 -228,-31 -82,-8 -155,-13 -219,-13 -287,0 -513,51 -680,154 -166,102 -250,267 -250,495 0,152 32,269 97,351 64,82 141,142 232,180 91,38 187,61 289,70 103,9 192,13 268,13 88,0 175,-7 263,-22 88,-14 164,-28 228,-39l0 -1158zm0 -903c0,-140 -23,-254 -70,-342 -47,-88 -111,-156 -193,-206 -82,-50 -183,-83 -303,-101 -120,-17 -252,-26 -399,-26 -315,0 -652,61 -1008,184 -82,-152 -143,-295 -184,-430 -41,-134 -62,-295 -62,-482 258,-88 515,-152 772,-193 257,-41 497,-61 719,-61 608,0 1083,146 1425,438 342,292 513,760 513,1403l0 2631c-205,64 -453,125 -745,184 -293,58 -623,88 -991,88 -298,0 -572,-27 -820,-79 -249,-53 -462,-141 -640,-264 -178,-122 -316,-280 -412,-473 -97,-193 -145,-430 -145,-710 0,-281 60,-516 180,-706 120,-190 274,-342 465,-456 190,-114 401,-196 635,-246 234,-49 468,-74 702,-74 169,0 356,9 561,26l0 -105zm-5700 -1552c88,-18 171,-31 250,-40 79,-8 165,-13 259,-13 88,0 174,6 258,18 85,12 169,26 250,44 18,29 34,71 49,127 14,55 27,114 39,175 12,61 22,123 31,184 9,62 16,113 22,154 128,-181 286,-344 473,-487 187,-143 421,-215 702,-215 58,0 125,3 202,9 75,6 131,15 166,26 12,59 21,126 26,202 6,76 9,155 9,237 0,99 -4,207 -13,324 -9,117 -25,228 -48,333 -65,-11 -136,-17 -215,-17 -79,0 -127,0 -145,0 -99,0 -210,10 -333,31 -123,20 -240,74 -351,162 -111,87 -203,219 -276,394 -73,176 -110,421 -110,737l0 2157c-105,18 -210,29 -315,35 -105,6 -208,9 -307,9 -99,0 -200,-3 -303,-9 -102,-6 -209,-17 -320,-35l0 -4542zm-1122 3464c70,116 128,252 175,407 47,155 70,338 70,548 -233,94 -453,154 -657,180 -205,26 -418,40 -641,40 -379,0 -710,-60 -990,-180 -281,-120 -513,-285 -697,-496 -185,-210 -323,-460 -417,-749 -93,-290 -140,-604 -140,-943 0,-333 45,-643 136,-930 90,-286 228,-537 412,-754 184,-216 413,-385 688,-508 275,-123 594,-184 956,-184 129,0 247,3 355,8 108,6 212,18 311,36 100,17 199,40 299,70 99,29 210,67 333,114 0,134 -18,285 -53,451 -35,167 -90,326 -166,478 -176,-58 -329,-98 -461,-118 -131,-21 -282,-31 -451,-31 -363,0 -636,118 -820,355 -184,237 -276,574 -276,1013 0,473 99,818 298,1035 199,216 467,324 806,324 88,0 169,-1 241,-4 74,-3 145,-11 215,-22 71,-12 142,-29 215,-53 73,-23 159,-52 259,-87zm-7024 -5235c123,-18 240,-31 351,-40 111,-9 234,-13 368,-13 117,0 231,4 342,13 111,9 234,22 368,40l1973 6304c-239,35 -473,53 -701,53 -222,0 -439,-18 -649,-53l-351 -1262 -2087 0 -359 1262c-211,35 -412,53 -605,53 -217,0 -430,-18 -640,-53l1990 -6304zm1403 3981l-728 -2648 -763 2648 1491 0zm-12966 -2920c1123,0 2034,910 2034,2034 0,1123 -911,2034 -2034,2034 -730,0 -1369,-384 -1729,-961l-2100 0c468,1674 2005,2903 3829,2903 659,0 1281,-161 1829,-446l0 2395c-578,179 -1193,275 -1829,275 -3424,0 -6200,-2776 -6200,-6200 0,-366 31,-725 92,-1073l2279 0 1914 0 186 0c360,-577 999,-961 1729,-961z"/>
 </g>
</svg>
